<?xml version="1.0" encoding="UTF-8" standalone="no"?>
<!-- Created with Inkscape (http://www.inkscape.org/) -->

<svg
   version="1.1"
   id="svg1"
   width="50.790096"
   height="28.369869"
   viewBox="0 0 50.790096 28.369869"
   sodipodi:docname="favicon03.svg"
   inkscape:version="1.4.3 (0d15f75, 2025-12-25)"
   xmlns:inkscape="http://www.inkscape.org/namespaces/inkscape"
   xmlns:sodipodi="http://sodipodi.sourceforge.net/DTD/sodipodi-0.dtd"
   xmlns="http://www.w3.org/2000/svg"
   xmlns:svg="http://www.w3.org/2000/svg">
  <defs
     id="defs1" />
  <sodipodi:namedview
     id="namedview1"
     pagecolor="#ffffff"
     bordercolor="#000000"
     borderopacity="0.25"
     inkscape:showpageshadow="2"
     inkscape:pageopacity="0.0"
     inkscape:pagecheckerboard="0"
     inkscape:deskcolor="#d1d1d1"
     showgrid="false"
     inkscape:zoom="19.396552"
     inkscape:cx="29.232"
     inkscape:cy="15.595555"
     inkscape:window-width="1920"
     inkscape:window-height="1009"
     inkscape:window-x="-8"
     inkscape:window-y="-8"
     inkscape:window-maximized="1"
     inkscape:current-layer="g1" />
  <g
     inkscape:groupmode="layer"
     inkscape:label="Image"
     id="g1"
     transform="translate(-3.271713,-3.3104274)">
    <path
       style="fill:#000000"
       d="m 5.9199999,31.359999 c -0.108774,-0.176 -0.5852724,-0.322205 -1.0588854,-0.3249 -0.473613,-0.0027 -1.0620978,-0.132162 -1.3077441,-0.287705 -0.5511827,-0.349006 -0.2486893,-1.245174 0.5193716,-1.538691 0.7446983,-0.284589 5.4877418,-3.494266 6.395846,-4.32815 0.587056,-0.539075 0.965708,-0.615432 2.207716,-0.445195 0.82452,0.113013 1.657656,0.329842 1.851412,0.481843 1.296979,1.017473 13.713787,1.051728 15.072284,0.04158 0.176,-0.130869 1.544,-0.340874 3.04,-0.466676 1.496,-0.125803 2.863999,-0.343794 3.039999,-0.484426 0.176,-0.140631 0.896,-0.331709 1.6,-0.424618 0.704,-0.09291 2,-0.344582 2.88,-0.559274 0.88,-0.214693 1.924,-0.406874 2.32,-0.427069 0.396,-0.02019 0.72,-0.144719 0.72,-0.276719 0,-0.132 0.361954,-0.24 0.804342,-0.24 0.442389,0 1.090389,-0.144 1.44,-0.32 1.543064,-0.776802 1.833283,-0.891056 2.806162,-1.104736 1.285542,-0.282352 1.373162,0.257855 0.149496,0.921704 -1.727659,0.937271 -0.132492,0.483741 1.795006,-0.510347 1.080696,-0.557359 2.054713,-0.923569 2.164481,-0.813801 0.322177,0.322177 -0.137296,1.184097 -0.752229,1.411097 -0.311992,0.11517 -0.639258,0.303915 -0.727258,0.419432 -0.088,0.115518 -1.24,0.841275 -2.56,1.612793 -1.32,0.771519 -2.472,1.479508 -2.56,1.57331 -0.431807,0.460275 -2.977035,1.588348 -3.23041,1.431753 -0.159274,-0.09844 -0.28959,-0.02648 -0.28959,0.159909 0,0.186387 -0.2592,0.338886 -0.576,0.338886 -0.3168,0 -0.7128,0.12925 -0.88,0.287224 -0.1672,0.157973 -0.952,0.376112 -1.744,0.484754 -2.573389,0.353003 -2.747178,0.388163 -3.150411,0.637374 -0.218951,0.135319 -0.859679,0.303784 -1.42384,0.374367 -2.016086,0.252233 -3.27554,0.504198 -3.905748,0.781378 -0.352,0.154818 -1.36,0.364598 -2.24,0.466177 -0.88,0.101579 -2.104,0.253437 -2.72,0.337461 -0.616,0.08403 -2.16762,0.244041 -3.448045,0.355592 -1.280424,0.11155 -2.404922,0.327211 -2.498885,0.479246 C 19.408276,31.799657 6.1657559,31.75764 5.9199999,31.359999 Z M 12.915383,21.548123 C 11.500236,21.251782 9.3372376,17.919999 10.56,17.919999 c 0.176,0 0.32,-0.261059 0.32,-0.580131 0,-0.72079 1.418434,-2.064863 2.8,-2.65321 0.572,-0.24359 1.04,-0.551738 1.04,-0.684774 0,-0.133037 0.236439,-0.241885 0.52542,-0.241885 0.288981,0 1.422611,-0.566627 2.519177,-1.259171 1.794267,-1.133183 2.749531,-1.616459 6.123764,-3.0980632 0.554599,-0.2435209 1.3021,-0.4427652 1.661115,-0.4427652 0.359014,0 0.74175,-0.144 0.850524,-0.32 0.108774,-0.176 0.551226,-0.32 0.983227,-0.32 0.432001,0 1.035503,-0.1381805 1.341115,-0.3070678 C 29.029954,7.8440445 30,7.5478712 30.88,7.3547689 c 0.88,-0.1931022 2.176,-0.496968 2.88,-0.6752572 0.704,-0.1782891 1.999999,-0.4463058 2.879999,-0.5955926 4.52374,-0.7674255 4.32,-0.7571766 4.32,-0.2173123 0,0.2809814 -0.324,0.6803823 -0.72,0.8875576 -0.396,0.2071752 -1.327091,0.8962417 -2.069091,1.5312587 -1.739232,1.4884659 -3.244234,2.7278229 -4.258386,3.5067479 -0.468132,0.359551 -1.543982,0.692099 -2.56,0.791302 -0.963887,0.09411 -2.760522,0.338133 -3.992522,0.542267 -1.232,0.204134 -2.489067,0.403419 -2.793482,0.442854 -0.304414,0.03944 -0.652414,0.170635 -0.773333,0.291553 -0.120919,0.120919 -0.600329,0.219852 -1.065357,0.219852 -0.465028,0 -1.12321,0.203063 -1.462626,0.45125 -0.577941,0.4226 -0.537869,0.466118 0.631157,0.685428 1.65316,0.310135 7.670053,-0.07091 8.583047,-0.543556 1.512887,-0.783205 1.847311,-0.913122 2.350502,-0.913122 0.285226,0 1.40318,-0.417045 2.484342,-0.926767 1.855365,-0.874727 3.498859,-1.607971 5.885749,-2.625927 0.572,-0.2439451 1.04,-0.5523847 1.04,-0.6854211 0,-0.1330364 0.203926,-0.2418843 0.453167,-0.2418843 0.249242,0 1.070872,-0.576 1.825843,-1.28 0.754972,-0.7039999 1.527257,-1.2799999 1.71619,-1.2799999 0.188933,0 0.555304,-0.2970085 0.814157,-0.660019 0.258854,-0.3630104 0.974643,-0.9696209 1.590643,-1.3480233 0.616,-0.3784025 1.314032,-0.8771398 1.551182,-1.1083053 0.544105,-0.530375 2.758981,-0.2992039 3.414571,0.3563857 0.737319,0.7373196 0.565439,1.6450706 -0.405753,2.1428986 -0.484,0.248096 -1.562523,0.9204291 -2.396718,1.4940734 -0.834195,0.5736444 -1.662195,1.0429898 -1.84,1.0429898 -0.177805,0 -0.323282,0.1184753 -0.323282,0.2632783 0,0.1448031 -0.644738,0.5852762 -1.432751,0.9788291 -0.788014,0.393553 -1.516512,0.851078 -1.618886,1.016722 C 45.485989,11.064473 45.122727,11.2 44.781114,11.2 c -0.341613,0 -0.621115,0.143999 -0.621115,0.319999 0,0.176 -0.216,0.32 -0.48,0.32 -0.264,0 -0.48,0.144 -0.48,0.32 0,0.176 -0.140063,0.32 -0.311252,0.32 -0.474597,0 -3.994029,1.699355 -4.115414,1.987124 -0.05867,0.139082 -0.237679,0.252876 -0.397805,0.252876 -0.526519,0 -2.855529,1.105555 -2.855529,1.355488 0,0.134482 -0.287999,0.244512 -0.639999,0.244512 -0.352,0 -0.64,0.144 -0.64,0.32 0,0.176 -0.252,0.323227 -0.56,0.32717 -0.308,0.0039 -1.424,0.432717 -2.48,0.95283 -1.056,0.520113 -2.173954,0.948887 -2.484342,0.95283 -0.310389,0.0039 -0.814389,0.134369 -1.12,0.289835 C 27.290046,19.31813 26.608,19.625397 26.08,19.845479 c -0.528,0.220082 -1.283783,0.5491 -1.679518,0.73115 -0.395735,0.182051 -0.814486,0.236033 -0.930557,0.119962 -0.116072,-0.116072 -0.426421,-0.03229 -0.689665,0.186184 -0.263244,0.218473 -0.852493,0.440944 -1.309443,0.494379 -1.602987,0.187452 -7.877906,0.312849 -8.555434,0.170969 z"
       id="path1" />
  </g>
</svg>
