<?xml version="1.0" encoding="UTF-8" standalone="no"?>
<!-- Created with Inkscape (http://www.inkscape.org/) -->

<svg
   version="1.1"
   id="svg1"
   width="192.64"
   height="131.52"
   viewBox="0 0 192.64 131.52"
   sodipodi:docname="logo2.svg"
   inkscape:version="1.4.3 (0d15f75, 2025-12-25)"
   xmlns:inkscape="http://www.inkscape.org/namespaces/inkscape"
   xmlns:sodipodi="http://sodipodi.sourceforge.net/DTD/sodipodi-0.dtd"
   xmlns="http://www.w3.org/2000/svg"
   xmlns:svg="http://www.w3.org/2000/svg">
  <defs
     id="defs1" />
  <sodipodi:namedview
     id="namedview1"
     pagecolor="#ffffff"
     bordercolor="#000000"
     borderopacity="0.25"
     inkscape:showpageshadow="2"
     inkscape:pageopacity="0.0"
     inkscape:pagecheckerboard="0"
     inkscape:deskcolor="#d1d1d1"
     showgrid="false"
     inkscape:zoom="6.1359487"
     inkscape:cx="97.132494"
     inkscape:cy="61.359705"
     inkscape:window-width="1920"
     inkscape:window-height="1009"
     inkscape:window-x="-8"
     inkscape:window-y="-8"
     inkscape:window-maximized="1"
     inkscape:current-layer="g1" />
  <g
     inkscape:groupmode="layer"
     inkscape:label="Image"
     id="g1">
    <path
       style="fill:#000000"
       d="m 59.043557,108.28052 c -0.532971,-0.81341 -0.525981,-0.86355 0.225129,-1.61466 0.688425,-0.68842 0.919038,-0.74285 2.060648,-0.48635 1.560105,0.35053 2.037812,0.0612 2.806007,-1.69951 0.307154,-0.704 0.690356,-1.53004 0.85156,-1.83565 0.161205,-0.30562 0.293513,-0.73762 0.294018,-0.96 0.0013,-0.56835 -1.695078,-4.541628 -1.994266,-4.671014 C 63.150994,96.95467 63.04,96.63067 63.04,96.293336 c 0,-0.337333 -0.144,-0.613333 -0.32,-0.613333 -0.176,0 -0.32,-0.301782 -0.32,-0.670626 0,-0.368845 -0.203105,-1.052845 -0.451345,-1.520001 -0.76323,-1.4363 -1.46827,-3.164125 -1.476219,-3.617734 -0.0042,-0.237402 -0.574308,-0.85086 -1.266994,-1.363241 -0.692687,-0.512381 -1.201925,-1.024646 -1.131641,-1.138368 0.231092,-0.373915 6.024344,-0.195743 6.152641,0.189226 0.06585,0.197591 -0.17416,0.43611 -0.533357,0.530042 -0.71218,0.186239 -0.909613,1.671546 -0.360895,2.715044 0.160704,0.305612 0.673884,1.419658 1.1404,2.475658 0.466516,1.056 0.98303,2.170046 1.14781,2.475658 0.16478,0.305612 0.2996,0.75598 0.2996,1.000818 0,0.244838 0.216,0.624424 0.48,0.843524 0.398839,0.331008 0.48,0.292544 0.48,-0.227484 0,-0.344217 0.08835,-0.714202 0.196339,-0.822188 0.21125,-0.211251 1.674118,-4.185146 1.881652,-5.111531 0.06915,-0.308662 0.228204,-0.727017 0.353455,-0.929679 0.125252,-0.202661 0.278914,-0.832933 0.34147,-1.400604 0.09324,-0.846126 -0.0141,-1.065559 -0.595614,-1.21763 -1.203751,-0.314788 -0.326765,-0.665941 1.838533,-0.736165 2.11492,-0.06859 2.506449,0.170962 1.482646,0.907136 -0.319835,0.229979 -0.8086,0.850145 -1.086145,1.378145 -0.607105,1.154956 -2.223184,5.490703 -2.832775,7.6 -0.241606,0.836 -0.551846,1.52 -0.689422,1.52 -0.137577,0 -0.250139,0.351502 -0.250139,0.781115 0,0.429613 -0.144,0.870112 -0.32,0.978882 -0.176,0.10878 -0.32,0.47728 -0.32,0.81889 0,0.34161 -0.159407,0.62111 -0.354237,0.62111 -0.19483,0 -0.273119,0.21139 -0.173975,0.46976 0.09914,0.25836 0.0623,0.54265 -0.08187,0.63175 -0.144171,0.0891 -0.446727,0.82133 -0.672348,1.62716 -0.249448,0.89094 -0.968042,2.08559 -1.833549,3.04825 -1.286146,1.4305 -1.555718,1.58308 -2.796874,1.58308 -1.129224,0 -1.471383,-0.14932 -1.923592,-0.83948 z m 28.848338,-0.35885 c -0.199443,-0.3258 -0.721567,-4.64626 -1.054007,-8.721667 -0.09332,-1.144 -0.302019,-2.2168 -0.463779,-2.384 C 86.212349,96.648803 86.08,95.613302 86.08,94.514889 c 0,-1.098414 -0.12919,-2.076959 -0.287089,-2.174545 -0.157898,-0.09759 -0.298393,-0.934086 -0.312211,-1.858886 -0.02624,-1.755904 -0.432784,-5.544904 -1.004458,-9.361455 -0.184538,-1.232 -0.518142,-3.968 -0.741342,-6.080001 -0.2232,-2.112 -0.499809,-4.056 -0.614688,-4.32 -0.114879,-0.264 -0.281023,-1.344 -0.369209,-2.4 -0.08819,-1.056 -0.32204,-3.216 -0.519676,-4.8 -0.197635,-1.584 -0.361249,-3.24 -0.363585,-3.68 -0.0023,-0.44 -0.112378,-0.944 -0.244537,-1.12 -0.13216,-0.176 -0.274349,-1.614382 -0.315976,-3.196405 -0.04163,-1.582022 -0.191705,-3.022022 -0.333506,-3.2 -0.246619,-0.309535 -0.560717,-3.719502 -0.751963,-8.163596 -0.04923,-1.144 -0.256418,-2.381736 -0.460416,-2.750526 -0.293879,-0.531274 -0.269836,-0.814824 0.11577,-1.365353 0.267672,-0.382155 0.604507,-0.622004 0.748523,-0.532998 0.144015,0.08901 0.446699,-0.0609 0.672631,-0.333134 0.225931,-0.272231 0.854247,-0.695777 1.396258,-0.941213 0.941137,-0.426172 3.388131,-1.792936 4.890921,-2.731815 0.387995,-0.242404 0.760545,-0.374185 0.827888,-0.292847 0.06734,0.08134 -0.01259,1.299886 -0.177626,2.707886 -0.442482,3.775008 -0.570499,13.873089 -0.178941,14.115085 0.178341,0.110222 0.634527,0.05868 1.013745,-0.114526 1.835098,-0.838196 2.40553,-1.062496 3.889487,-1.529389 0.88,-0.276872 1.888,-0.627859 2.24,-0.779972 0.696719,-0.30108 2.998891,-0.926366 4.4,-1.195071 0.484,-0.09282 0.88,-0.277871 0.88,-0.41122 0,-0.13335 0.73256,-0.339633 1.62792,-0.458406 0.89536,-0.118774 1.86736,-0.33929 2.16,-0.490037 0.29264,-0.150748 1.18008,-0.446156 1.97208,-0.656463 0.792,-0.210308 1.69005,-0.512343 1.99566,-0.671189 0.30561,-0.158846 0.90911,-0.288812 1.34111,-0.288812 0.432,0 0.87915,-0.151601 0.99367,-0.336891 0.11452,-0.185291 0.37501,-0.276749 0.57888,-0.203241 0.20388,0.07351 0.65263,-0.01199 0.99725,-0.189993 0.34461,-0.178004 0.84861,-0.347563 1.12,-0.376797 1.11653,-0.120277 3.07468,-0.592237 3.37343,-0.813078 0.32036,-0.236818 2.70296,-0.783657 3.08052,-0.70702 0.11029,0.02238 0.97225,-0.241377 1.91548,-0.586139 0.94323,-0.344763 2.0325,-0.626841 2.4206,-0.626841 0.38809,0 0.78003,-0.120384 0.87097,-0.26752 0.0909,-0.147136 0.49011,-0.243593 0.88706,-0.214349 0.39695,0.02924 1.06896,-0.126977 1.49336,-0.347158 0.4244,-0.220181 0.95516,-0.329907 1.17946,-0.243835 0.2243,0.08607 0.50288,0.0027 0.61907,-0.185322 0.11619,-0.187999 0.62625,-0.341816 1.13348,-0.341816 0.50723,0 1.01961,-0.15756 1.13862,-0.350134 0.11902,-0.192574 0.58492,-0.279687 1.03533,-0.193585 0.4785,0.09147 1.01216,-0.03668 1.28375,-0.308269 0.25565,-0.25565 0.68051,-0.382052 0.94412,-0.280894 0.26361,0.101158 0.68832,0.01045 0.94378,-0.201565 0.25547,-0.212019 0.84922,-0.426598 1.31944,-0.476843 0.47023,-0.05024 1.35896,-0.177215 1.97496,-0.282157 l 1.12,-0.190802 -1.18339,1.062125 c -0.65086,0.584168 -1.9997,1.710124 -2.99743,2.502124 -0.99773,0.792 -2.16375,1.764 -2.59116,2.16 -0.56082,0.519602 -1.1686,0.72 -2.18368,0.72 -0.77361,0 -1.49557,0.144 -1.60434,0.32 -0.10877,0.176 -0.90077,0.32 -1.76,0.32 -0.85923,0 -1.65123,0.144 -1.76,0.32 -0.10877,0.176 -0.82877,0.32 -1.6,0.32 -0.77123,0 -1.48335,0.131252 -1.58249,0.291671 -0.0991,0.160419 -0.57564,0.244612 -1.05889,0.187095 -0.48324,-0.05752 -1.16662,0.07153 -1.51862,0.286767 -0.352,0.215239 -1.03298,0.355906 -1.51328,0.312594 -0.48031,-0.04331 -0.95681,0.05639 -1.05889,0.221562 -0.10208,0.165171 -0.6006,0.300312 -1.10783,0.300312 -0.50723,0 -1.00183,0.128788 -1.09911,0.286197 -0.0973,0.157408 -0.71778,0.367883 -1.37888,0.467721 -2.85939,0.431819 -3.60201,0.612733 -3.60201,0.877507 0,0.154773 -0.324,0.275046 -0.72,0.267274 -0.83959,-0.01648 -2.36621,0.281893 -3.28,0.641064 -1.34818,0.529908 -2.93709,0.947385 -4.4,1.156073 -0.836,0.119257 -1.52,0.344481 -1.52,0.500498 0,0.156016 -0.3515,0.283666 -0.781115,0.283666 -0.429613,0 -0.857681,0.123888 -0.951263,0.275307 -0.09358,0.151418 -0.843553,0.367607 -1.666602,0.480418 -0.823049,0.112811 -1.65498,0.322985 -1.848736,0.467053 -0.193757,0.144067 -1.000284,0.457817 -1.792284,0.697222 -0.792,0.239404 -1.59725,0.552093 -1.789443,0.694864 -0.192194,0.142771 -0.443311,0.165715 -0.558038,0.05099 -0.114728,-0.114727 -0.512597,0.06652 -0.884153,0.402776 -0.371557,0.336255 -0.733088,0.572791 -0.803402,0.525636 -0.07031,-0.04715 -0.505262,0.009 -0.966552,0.124768 -0.817039,0.205063 -0.832806,0.256888 -0.610225,2.005735 0.294411,2.313234 0.804646,8.013497 0.919743,10.275233 0.04926,0.968 0.183078,1.976 0.297372,2.24 0.114294,0.264 0.286063,1.128 0.381708,1.92 0.09565,0.792 0.312917,2.304 0.482826,3.36 0.16991,1.056 0.395554,2.496001 0.501432,3.200001 0.105878,0.704 0.283156,1.496 0.393952,1.76 0.110796,0.264 0.216331,0.915448 0.234522,1.447663 0.01819,0.532215 0.158401,1.170447 0.311579,1.418293 0.153177,0.247847 0.319874,0.820398 0.370438,1.272337 0.289378,2.586454 0.553515,3.861707 0.799857,3.861707 0.153111,0 0.278384,0.576 0.278384,1.28 0,0.704 0.128766,1.28 0.286148,1.28 0.157381,0 0.29589,0.324 0.307797,0.72 0.03975,1.321925 0.43345,3.123882 0.721411,3.301851 C 94.27191,94.67861 94.4,95.172777 94.4,95.680003 c 0,0.507226 0.144,1.011226 0.32,1.12 0.176,0.108774 0.32,0.540774 0.32,0.96 0,0.419226 0.146349,0.852678 0.32522,0.963226 0.17887,0.110549 0.238473,0.341355 0.132451,0.512903 -0.106023,0.171549 -0.06641,0.485598 0.08804,0.697889 0.352792,0.484929 1.150874,2.804939 1.003668,2.917639 -0.06016,0.0461 -1.405376,0.85216 -2.989376,1.79135 -1.584,0.93919 -3.483038,2.11548 -4.220083,2.61397 -0.737045,0.4985 -1.406656,0.79761 -1.488022,0.66469 z m -33.593109,-5.60874 c -0.617622,-0.20587 -0.94381,-0.57805 -1.073072,-1.22436 -0.179753,-0.89876 -0.580451,-1.223478 -0.799047,-0.64752 C 52.202931,101.03054 49.792846,102.4 48.979142,102.4 46.964757,102.4 45.44,100.72276 45.44,98.506917 c 0,-1.093227 1.11538,-3.146914 1.709124,-3.146914 0.207309,0 0.560274,-0.293588 0.784367,-0.652417 0.224093,-0.358829 0.529806,-0.576791 0.679363,-0.48436 0.149557,0.09243 0.63556,-0.117981 1.080007,-0.467583 0.444447,-0.349602 0.943249,-0.63564 1.108448,-0.63564 0.165199,0 0.754486,-0.226547 1.309527,-0.503437 C 52.879998,92.232857 53.12,91.901749 53.12,91.224317 c 0,-1.303091 -0.634744,-2.904314 -1.151304,-2.904314 -0.246783,0 -0.448696,-0.144 -0.448696,-0.32 0,-0.492124 -1.372851,-0.379358 -2.168798,0.178145 -0.391161,0.27398 -0.711202,0.83198 -0.711202,1.24 0,0.40802 -0.09,1.191855 -0.2,1.741855 -0.167977,0.839883 -0.346332,1 -1.113904,1 -2.303485,0 -1.065396,-4.545976 1.336946,-4.908954 0.251327,-0.03797 0.629871,-0.177112 0.841209,-0.309197 0.637304,-0.398309 2.594005,-0.351457 3.10713,0.0744 0.264321,0.219367 0.613503,0.316701 0.775961,0.216296 0.162457,-0.100404 0.672765,0.194836 1.134017,0.656088 0.822577,0.822577 0.839407,0.926683 0.878641,5.435004 0.022,2.528 0.06613,4.704364 0.09807,4.836364 0.03194,0.132 0.169378,0.708 0.305425,1.28 0.281829,1.184917 0.405557,1.239607 1.192795,0.527161 0.311675,-0.282061 0.755013,-0.449204 0.985197,-0.371428 0.274043,0.0926 0.01791,0.518174 -0.741984,1.232834 -1.864356,1.7534 -1.971446,1.80745 -2.940713,1.48436 z M 52.019936,99.646888 53.12,99.054465 V 96.22567 c 0,-2.767005 -0.01534,-2.823925 -0.702454,-2.605845 -1.33332,0.423179 -3.670482,2.050772 -3.983938,2.774401 -0.382454,0.882914 -0.274286,2.387622 0.240826,3.350118 0.455271,0.850686 1.649515,0.815896 3.345502,-0.09746 z M 23.546667,102.16 c -0.132,-0.132 -0.336,-0.25206 -0.453334,-0.26681 C 21.736094,101.7226 18.24,98.629187 18.24,97.59887 c 0,-0.351377 -0.127213,-0.638867 -0.282695,-0.638867 -0.531112,0 -1.647712,-6.260329 -1.289759,-7.231156 0.123468,-0.334864 0.408818,-1.256844 0.634112,-2.048844 0.225294,-0.792 0.528587,-1.5768 0.673984,-1.744 0.145397,-0.1672 0.264358,-0.5632 0.264358,-0.88 0,-0.3168 0.144,-0.576 0.32,-0.576 0.176,0 0.32,-0.150273 0.32,-0.33394 0,-0.42866 2.246855,-2.86606 2.642004,-2.86606 0.164559,0 0.68629,-0.275634 1.159402,-0.612519 0.872434,-0.621228 2.742122,-1.112288 4.198594,-1.102731 1.364432,0.009 3.84,0.49521 3.84,0.754262 0,0.135489 0.252,0.335231 0.56,0.443871 0.308,0.108641 0.742963,0.282423 0.966585,0.386184 0.253999,0.117856 0.535953,-0.18245 0.751304,-0.800206 0.189595,-0.543874 0.449741,-0.988861 0.578102,-0.988861 0.658746,0 1.322867,7.432803 0.698594,7.818625 -0.156978,0.09702 -0.472734,-0.458017 -0.701681,-1.233411 C 32.779527,83.258213 31.08248,81.450564 28.96,81.031674 c -1.563918,-0.308653 -3.727624,-0.130715 -4.204071,0.345733 -0.122428,0.122428 -0.416626,0.222596 -0.653773,0.222596 -1.101288,0 -3.040103,3.2425 -3.539795,5.92 -0.296332,1.587837 -0.444013,5.98061 -0.217962,6.483294 0.137688,0.306188 0.276876,0.808946 0.309306,1.11724 0.03243,0.308294 0.50556,1.460294 1.0514,2.56 1.051539,2.11854 2.122068,2.899573 4.507965,3.288923 0.601188,0.0981 1.196647,0.24238 1.323242,0.32062 0.258754,0.15992 1.847201,-0.3139 3.449498,-1.02896 0.586195,-0.261601 1.513915,-1.111372 2.0616,-1.888378 0.547685,-0.777006 1.18407,-1.412739 1.41419,-1.412739 0.576489,0 0.545833,0.09954 -0.512468,1.663958 -1.146319,1.694529 -2.320776,2.736499 -3.38572,3.003779 -0.445203,0.11174 -0.888597,0.33121 -0.985321,0.48771 -0.212611,0.34401 -5.691494,0.38448 -6.031424,0.0446 z M 111.52,102.08 c -0.10877,-0.176 -0.4383,-0.32 -0.73228,-0.32 -0.60929,0 -3.58616,-1.943867 -3.5871,-2.342341 -3.4e-4,-0.144289 -0.43268,-0.890327 -0.96076,-1.657861 -0.71731,-1.042576 -1.05137,-2.028338 -1.32087,-3.897657 -0.42099,-2.920158 -0.42112,-2.627249 0.002,-5.001935 0.39271,-2.202474 1.0255,-4.060203 1.383,-4.060203 0.14065,0 0.25572,-0.168838 0.25572,-0.375195 0,-0.520492 3.39195,-3.784805 3.93279,-3.784805 0.2423,0 0.5461,-0.105558 0.67511,-0.234572 0.39729,-0.397281 2.53992,-0.925015 3.5521,-0.874885 1.67453,0.08293 3.47534,0.548951 4.4735,1.157662 1.23972,0.756023 1.33864,0.745123 1.56905,-0.172909 0.10556,-0.420587 0.40917,-0.848068 0.67469,-0.949957 0.40807,-0.156592 0.48276,0.255541 0.48276,2.663872 0,1.567019 0.14449,3.229152 0.32108,3.693629 0.27409,0.720918 0.24065,0.829014 -0.22851,0.738662 -0.33179,-0.0639 -0.65976,-0.571698 -0.82759,-1.281378 -0.32227,-1.36266 -3.03674,-4.381448 -3.95037,-4.393235 -0.32704,-0.0042 -1.06084,-0.100079 -1.63068,-0.213023 -0.56984,-0.112944 -1.28984,-0.09728 -1.6,0.03482 -0.31016,0.132096 -0.81383,0.26796 -1.11926,0.301922 -0.6185,0.06877 -1.65144,0.883881 -2.63487,2.079214 -0.91237,1.108966 -1.31823,1.956462 -1.62821,3.399949 -0.34729,1.617217 -0.40769,8.765773 -0.0758,8.970895 0.13981,0.08641 0.2542,0.436607 0.2542,0.77822 0,0.341613 0.144,0.621114 0.32,0.621114 0.176,0 0.32,0.221768 0.32,0.492818 0,0.607224 2.54159,3.076329 2.92361,2.840229 0.15201,-0.0939 0.27639,-0.0183 0.27639,0.16807 0,0.18638 0.36947,0.33888 0.82104,0.33888 0.45157,0 1.11503,0.15734 1.47435,0.34965 0.47248,0.25286 0.7501,0.25286 1.00296,0 0.19231,-0.19231 0.69032,-0.34965 1.10669,-0.34965 0.41637,0 1.07157,-0.16008 1.456,-0.35573 0.76643,-0.39007 3.41896,-3.144925 3.41896,-3.550847 0,-0.139381 0.144,-0.25342 0.32,-0.25342 1.49455,0 -2.0896,4.327457 -4.37506,5.282377 -1.29903,0.54277 -6.0342,0.6604 -6.34494,0.15762 z m 25.08732,-0.41117 c -0.95122,-0.63966 -1.10869,-0.94255 -1.25807,-2.419845 -0.20938,-2.070596 0.23645,-3.224632 1.65793,-4.291627 1.07664,-0.80815 4.50102,-2.477355 5.0823,-2.477355 0.75396,0 0.43181,-3.540568 -0.38578,-4.24 -1.48851,-1.273393 -3.7837,-0.01318 -3.7837,2.077512 0,2.109816 -1.7282,2.390306 -2.1123,0.342832 -0.24683,-1.315675 0.5024,-2.551762 1.98339,-3.272247 1.75925,-0.855855 1.91292,-0.907142 2.53991,-0.847677 4.26956,0.404939 4.90084,1.362069 4.88647,7.408679 -0.0142,5.952947 0.004,6.210898 0.43733,6.210898 0.20614,0 0.63903,-0.239114 0.96196,-0.531368 0.32294,-0.292255 0.6881,-0.430434 0.81147,-0.307065 0.38933,0.389332 -0.72755,1.843683 -1.95427,2.544743 -1.34039,0.76603 -2.13493,0.52043 -2.43551,-0.75287 -0.24741,-1.04804 -0.71409,-1.0948 -1.59267,-0.15958 -0.41654,0.44338 -1.02024,0.80614 -1.34156,0.80614 -0.32132,0 -0.58422,0.144 -0.58422,0.32 0,0.58571 -1.81025,0.33016 -2.91268,-0.41117 z m 5.12143,-2.170241 c 0.67955,-0.565852 0.77727,-0.936415 0.84222,-3.193814 0.0404,-1.404531 -0.0481,-2.628847 -0.19675,-2.720702 -0.3679,-0.227375 -3.21521,1.244701 -3.83234,1.981343 -1.20907,1.443205 -1.26329,2.563894 -0.203,4.196068 0.40526,0.623836 2.52212,0.459666 3.38987,-0.262895 z M 37.254529,101.71879 c -0.07921,-0.12817 0.168396,-0.27933 0.55024,-0.33591 1.25617,-0.18614 1.501867,-1.798411 1.511006,-9.915248 0.009,-7.978511 -0.263128,-10.187629 -1.254878,-10.187629 -1.214709,0 -0.923109,-0.669493 0.558616,-1.282545 0.847268,-0.35055 1.776962,-0.772909 2.065987,-0.938576 0.289025,-0.165666 0.613025,-0.213687 0.72,-0.106712 0.106975,0.106974 0.1945,4.931966 0.1945,10.722204 0,6.645062 0.122169,10.755976 0.331259,11.146666 0.189958,0.35494 0.6677,0.61896 1.12,0.61896 0.433807,0 0.788741,0.13071 0.788741,0.29046 0,0.34184 -6.373967,0.33055 -6.585471,-0.0117 z M 124.27046,101.68 c -0.14144,-0.22901 0.37807,-0.37209 0.9655,-0.26591 0.15177,0.0274 0.47119,-0.20751 0.70982,-0.5221 0.32358,-0.42659 0.43645,-1.918189 0.44404,-5.867987 0.0108,-5.628883 -0.0983,-6.064 -1.52049,-6.064 -0.80911,0 -0.85251,-0.686694 -0.052,-0.822664 0.80617,-0.13693 2.81086,-1.074652 3.01965,-1.412488 0.46757,-0.756546 0.803,-0.216492 0.803,1.29287 v 1.617719 l 1.64344,-1.617719 c 0.90389,-0.889745 1.74847,-1.617718 1.87684,-1.617718 0.12838,0 0.62078,0.304707 1.09424,0.677127 0.97809,0.769365 1.03365,2.067817 0.11315,2.644122 -0.42076,0.263428 -0.78679,0.207305 -1.53657,-0.235603 -1.25282,-0.740058 -1.65672,-0.569707 -2.50417,1.056156 -0.58879,1.129627 -0.68676,1.853661 -0.68573,5.068052 0.001,3.208332 0.0954,3.904625 0.65306,4.819373 0.40698,0.66753 0.82344,1.00338 1.10856,0.89397 0.25118,-0.0964 0.54179,-0.0375 0.64582,0.13078 0.22649,0.36647 0.4251,0.343 -3.4793,0.41108 -1.73286,0.0302 -3.21735,-0.0531 -3.29888,-0.18506 z m 23.88917,-0.0354 c 2e-4,-0.15146 0.64837,-1.20236 1.44037,-2.335331 0.792,-1.132966 1.44,-2.140252 1.44,-2.238413 0,-0.15308 0.57409,-0.921688 1.9262,-2.578834 0.17411,-0.213384 0.48305,-0.753384 0.68654,-1.2 0.2035,-0.446616 0.49087,-0.812029 0.63862,-0.812029 0.14775,0 0.26864,-0.198368 0.26864,-0.440818 0,-0.242449 0.20657,-0.612258 0.45905,-0.821796 0.62725,-0.520567 1.81261,-2.844019 1.52962,-2.998229 -0.54189,-0.295289 -4.78102,-0.169954 -5.53466,0.163639 -0.57835,0.256005 -0.95245,0.792862 -1.24654,1.788875 -0.54852,1.857745 -0.94246,1.159457 -0.72869,-1.291671 l 0.16047,-1.84 h 5.54149 c 3.2093,0 5.62169,0.129763 5.73205,0.308328 0.1048,0.16958 -0.0667,0.575493 -0.38112,0.902027 -0.69579,0.722605 -2.01167,2.538411 -2.01167,2.775947 0,0.09472 -0.504,0.873748 -1.12,1.731175 -0.616,0.857427 -1.12,1.72054 -1.12,1.918029 0,0.197489 -0.288,0.53893 -0.64,0.758757 -0.352,0.219828 -0.64,0.61841 -0.64,0.885737 0,0.267328 -0.288,0.665909 -0.64,0.885737 -0.352,0.219827 -0.64,0.552074 -0.64,0.738326 0,0.186251 -0.36,0.810624 -0.8,1.387493 -0.44,0.57687 -0.8,1.143261 -0.8,1.258651 0,0.11539 1.41248,0.20979 3.13884,0.20979 3.63564,0 4.34012,-0.31562 4.37961,-1.962168 0.0187,-0.77972 0.18857,-1.10508 0.62034,-1.188233 0.44551,-0.0858 0.54277,0.02054 0.3879,0.424121 C 160.09301,98.369965 160,99.314421 160,100.17251 v 1.56016 l -5.92037,0.0937 c -3.2562,0.0515 -5.9202,-0.0303 -5.92,-0.18173 z m 13.55055,0.0354 c -0.1404,-0.22775 -0.0671,-0.26891 0.68982,-0.38769 0.176,-0.0276 0.644,-0.15938 1.04,-0.29282 l 0.72,-0.24261 0.0379,-9.178441 c 0.0209,-5.04814 0.0109,-9.394436 -0.0221,-9.658436 -0.0847,-0.677191 -0.96236,-1.28 -1.86361,-1.28 -0.42327,0 -0.71204,-0.160398 -0.64591,-0.35878 0.0845,-0.2536 2.31773,-0.342228 7.61768,-0.30232 4.12395,0.03105 7.52693,0.0853 7.56218,0.120557 0.0353,0.03525 0.10031,1.06296 0.14457,2.283793 0.0536,1.477957 -0.045,2.261531 -0.29511,2.344889 -0.20918,0.06973 -0.37558,-0.177207 -0.37558,-0.557364 0,-1.17905 -0.89587,-2.485811 -1.95803,-2.856082 -1.17265,-0.40879 -6.32207,-0.471743 -6.93194,-0.08474 -0.30668,0.194601 -0.3873,1.301974 -0.32,4.3951 l 0.09,4.134952 3.13988,0.05505 3.13988,0.05505 0.61892,-1.015047 c 0.34041,-0.558276 0.61947,-1.339047 0.62012,-1.735047 6.6e-4,-0.396 0.1452,-0.72 0.3212,-0.72 0.19394,0 0.32,1.386667 0.32,3.52 0,1.936 0.0108,3.6244 0.024,3.752 0.0132,0.1276 -0.11768,0.279228 -0.29085,0.336951 -0.17317,0.05772 -0.40813,-0.319746 -0.52214,-0.838819 -0.36717,-1.671721 -1.20948,-2.117189 -4.24419,-2.244604 -2.04649,-0.08592 -2.79509,-0.0061 -3.00173,0.32 -0.37935,0.5987 -0.35733,7.722796 0.027,8.73364 0.30895,0.812599 0.34745,0.820829 3.84,0.820829 1.9628,0 3.52792,-0.13209 3.52792,-0.29774 0,-0.16376 0.31172,-0.34376 0.69271,-0.4 0.40355,-0.0596 0.90446,-0.53334 1.2,-1.13499 0.69105,-1.406835 0.98729,-1.307348 0.98729,0.331572 0,2.482288 0.15282,2.435468 -8.27093,2.533878 -4.10901,0.048 -7.53751,-0.0207 -7.61889,-0.15272 z M 101.6,74.240002 c -0.10877,-0.176 -0.58527,-0.322205 -1.05889,-0.3249 -1.312707,-0.0075 -1.881892,-0.463498 -1.361351,-1.090711 0.230233,-0.277414 0.53941,-0.504389 0.68706,-0.504389 0.330141,0 5.322991,-3.359413 6.233801,-4.194385 0.70803,-0.649072 2.21223,-0.814953 2.54261,-0.280395 0.11054,0.178871 0.34135,0.238474 0.5129,0.132451 0.17155,-0.106022 0.4856,-0.05582 0.69789,0.111564 1.32758,1.046747 14.03127,1.104534 15.42598,0.07017 0.176,-0.130527 0.896,-0.256911 1.6,-0.280854 1.82007,-0.0619 3.73392,-0.351775 4.48,-0.678551 0.352,-0.154173 1.144,-0.350383 1.76,-0.436024 0.616,-0.08564 1.84,-0.329712 2.72,-0.54238 0.88,-0.212669 1.924,-0.382762 2.32,-0.377985 0.396,0.0048 0.72,-0.120081 0.72,-0.277463 0,-0.157381 0.36195,-0.286148 0.80434,-0.286148 0.44239,0 1.05439,-0.127199 1.36,-0.282665 1.64148,-0.835027 2.33465,-1.085011 2.51327,-0.906388 0.24308,0.243073 -0.65971,1.189053 -1.13475,1.189053 -0.18857,0 -0.34286,0.144 -0.34286,0.32 0,0.176 0.216,0.32 0.48,0.32 0.264,0 0.48,-0.144 0.48,-0.32 0,-0.176 0.20138,-0.32 0.4475,-0.32 0.24613,0 1.2749,-0.435232 2.28616,-0.967183 1.01125,-0.531951 1.91039,-0.895431 1.99809,-0.807733 0.24274,0.242739 -0.5939,1.134916 -1.06427,1.134916 -0.22778,0 -0.46215,0.119497 -0.52081,0.265549 -0.0587,0.146053 -1.18667,0.897306 -2.50667,1.669452 -1.32,0.772147 -2.472,1.488152 -2.56,1.591124 -0.32499,0.380276 -2.73319,1.403911 -3.12,1.32619 -0.22,-0.0442 -0.4,0.06994 -0.4,0.253658 0,0.183715 -0.2592,0.334027 -0.576,0.334027 -0.3168,0 -0.7128,0.129251 -0.88,0.287224 -0.26484,0.250224 -1.0664,0.408767 -3.824,0.756362 -0.352,0.04437 -0.81551,0.193439 -1.03003,0.331265 -0.21451,0.137826 -0.86251,0.314592 -1.44,0.392815 -2.51377,0.340499 -3.63095,0.563717 -3.92997,0.785228 -0.176,0.130378 -0.94489,0.256782 -1.70865,0.280898 -0.76375,0.02412 -1.5535,0.145736 -1.755,0.270266 -0.20149,0.124531 -0.8726,0.262629 -1.49135,0.306885 -3.61288,0.258407 -5.80193,0.549928 -5.95193,0.792631 -0.24469,0.395915 -13.1674,0.353935 -13.41307,-0.04357 z m 7.38098,-9.886053 c -0.11081,-0.179298 -0.38532,-0.255446 -0.61003,-0.16922 -0.2247,0.08623 -0.86809,-0.348224 -1.42975,-0.965447 -1.00129,-1.100343 -1.33495,-2.09928 -0.7012,-2.09928 0.176,0 0.32,-0.261059 0.32,-0.580131 0,-0.72079 1.41843,-2.064863 2.8,-2.653211 0.572,-0.243589 1.04,-0.551737 1.04,-0.684774 0,-0.133036 0.23644,-0.241884 0.52542,-0.241884 0.28898,0 1.42261,-0.566628 2.51918,-1.259172 1.79426,-1.133182 2.74953,-1.616458 6.12376,-3.098063 0.5546,-0.243521 1.3021,-0.442765 1.66112,-0.442765 0.35901,0 0.74175,-0.144 0.85052,-0.32 0.10877,-0.176 0.55123,-0.32 0.98323,-0.32 0.432,0 1.0355,-0.138181 1.34111,-0.307068 0.30561,-0.168887 1.27566,-0.465061 2.15566,-0.658163 0.88,-0.193102 2.176,-0.496968 2.88,-0.675257 0.704,-0.17829 2,-0.443411 2.88,-0.589158 0.88,-0.145748 2.14,-0.370543 2.8,-0.499545 1.36729,-0.267247 1.65078,0.230838 0.48,0.843355 -0.396,0.207176 -1.32709,0.896242 -2.06909,1.531259 -1.73923,1.488466 -3.24424,2.727823 -4.25839,3.506748 -0.4827,0.370744 -1.57671,0.699839 -2.72,0.818224 -2.99469,0.310093 -3.74158,0.411483 -5.11252,0.694025 -0.704,0.145091 -1.44914,0.231132 -1.65587,0.191204 -0.20673,-0.03993 -0.46723,0.07522 -0.57889,0.255889 -0.11165,0.180668 -0.59051,0.33359 -1.06413,0.339826 -0.47361,0.0062 -1.22111,0.211387 -1.66111,0.455889 l -0.8,0.44455 0.96,0.378526 c 1.08946,0.429573 8.34409,0.227948 9.33069,-0.259325 0.32412,-0.160082 0.91136,-0.45754 1.30497,-0.661018 0.39361,-0.203479 0.94743,-0.369961 1.23072,-0.369961 0.45637,0 4.46353,-1.727369 5.98664,-2.580659 0.31516,-0.176563 0.71116,-0.235646 0.88,-0.131296 0.16884,0.104349 0.30698,0.0641 0.30698,-0.08943 0,-0.153537 0.504,-0.476913 1.12,-0.718612 0.616,-0.2417 1.12,-0.556577 1.12,-0.699727 0,-0.14315 0.20392,-0.260273 0.45317,-0.260273 0.24924,0 1.07087,-0.576 1.82584,-1.28 0.75497,-0.704 1.52726,-1.28 1.71619,-1.28 0.18893,0 0.5553,-0.297009 0.81416,-0.660019 0.25885,-0.363011 0.97464,-0.969621 1.59064,-1.348024 0.616,-0.378402 1.30328,-0.866385 1.52728,-1.084405 0.50857,-0.494979 2.51538,-0.270606 3.13668,0.350698 0.69331,0.693307 0.54944,1.305726 -0.42396,1.804686 -0.484,0.248096 -1.56252,0.920429 -2.39672,1.494074 -0.83419,0.573644 -1.66219,1.04299 -1.84,1.04299 -0.1778,0 -0.32328,0.118475 -0.32328,0.263278 0,0.144803 -0.64474,0.585276 -1.43275,0.978829 -0.78802,0.393553 -1.51651,0.851078 -1.61889,1.016722 -0.10237,0.165644 -0.46563,0.301171 -0.80725,0.301171 -0.34161,0 -0.62111,0.144 -0.62111,0.32 0,0.176 -0.216,0.32 -0.48,0.32 -0.264,0 -0.48,0.144 -0.48,0.32 0,0.176 -0.14006,0.32 -0.31125,0.32 -0.46081,0 -3.97698,1.682057 -4.20453,2.01135 -0.10767,0.155822 -0.28752,0.271374 -0.39965,0.256782 -0.39541,-0.05145 -2.76457,1.086055 -2.76457,1.327356 0,0.134482 -0.288,0.244512 -0.64,0.244512 -0.352,0 -0.64,0.144 -0.64,0.32 0,0.176 -0.252,0.323226 -0.56,0.32717 -0.308,0.0039 -1.424,0.432717 -2.48,0.95283 -1.056,0.520113 -2.17395,0.948886 -2.48434,0.95283 -0.31039,0.0039 -0.81439,0.134369 -1.12,0.289835 -0.30561,0.155466 -0.98766,0.460267 -1.51566,0.677335 -0.528,0.217068 -1.21786,0.526747 -1.53302,0.688176 -0.31516,0.161428 -0.71746,0.20423 -0.89401,0.09512 -0.17656,-0.109114 -0.53766,-0.01858 -0.80246,0.201183 -0.57147,0.474274 -1.46247,0.599793 -5.77928,0.814147 -2.03651,0.101125 -3.32395,0.03968 -3.45025,-0.164675 z M 144,64.000002 c 0,-0.176 0.1525,-0.32 0.33888,-0.32 0.18639,0 0.24989,0.144 0.14112,0.32 -0.10877,0.176 -0.26127,0.32 -0.33889,0.32 -0.0776,0 -0.14111,-0.144 -0.14111,-0.32 z M 80.64,34.278462 c 0,-0.26896 -3.048328,-0.694971 -4.858964,-0.679053 -0.47243,0.0042 -0.948928,-0.138014 -1.058885,-0.315928 -0.109957,-0.177914 -0.625378,-0.32348 -1.145379,-0.32348 -0.520001,0 -1.195502,-0.13052 -1.501114,-0.290044 C 71.770046,32.510433 70.896347,32.213162 70.134105,32.009354 68.331356,31.527336 66.88,30.237197 66.88,29.116717 c 0,-0.86642 2.311987,-4.796716 2.821656,-4.796716 0.151588,0 0.43395,-0.34751 0.627472,-0.772245 0.193523,-0.424735 0.641271,-0.864101 0.994996,-0.976369 0.353726,-0.112268 0.732208,-0.484758 0.841071,-0.827755 0.108863,-0.342997 0.393943,-0.623631 0.633512,-0.623631 0.239568,0 0.625864,-0.18 0.858436,-0.4 0.380185,-0.359636 3.43993,-2.448175 4.797337,-3.274596 0.293964,-0.178973 1.373964,-0.757404 2.4,-1.285404 C 81.880516,15.632001 82.792,15.128 82.88,15.04 c 0.346681,-0.346681 2.350431,-0.92952 2.620911,-0.762355 0.157918,0.0976 0.505618,-0.0039 0.772665,-0.225511 0.492676,-0.408884 5.174409,-0.667541 5.402503,-0.298478 0.06621,0.107126 -0.766012,0.908377 -1.849375,1.780559 -2.502404,2.014607 -2.677184,2.158284 -4.265489,3.506418 -1.287922,1.093172 -1.385274,1.119651 -4.16,1.131482 L 78.56,20.184229 77.44,21.613592 c -1.706711,2.178135 -1.877761,2.980528 -0.827884,3.883595 0.474965,0.408547 1.207044,0.742814 1.626843,0.742814 0.419798,0 0.842866,0.128789 0.94015,0.286197 0.206053,0.333402 2.042752,0.620719 4.980891,0.779169 2.820501,0.152105 5.12,0.548567 5.12,0.88275 0,0.151497 -0.432,0.498845 -0.96,0.771884 -0.528,0.273039 -0.96,0.634931 -0.96,0.804203 0,0.169273 -0.54,0.671493 -1.2,1.116045 -0.66,0.444551 -1.992,1.448522 -2.96,2.231045 -1.692199,1.367959 -2.56,1.763611 -2.56,1.167168 z"
       id="path1" />
  </g>
</svg>
